<svg width="96" height="25" viewBox="0 0 96 25" xmlns="http://www.w3.org/2000/svg"><g fill="#000" fill-rule="nonzero"><path d="M3.513 23.897c-1.099 0-1.884-.228-2.355-.687-.471-.457-.706-1.113-.706-1.967 0-.416.029-1.129.088-2.14.059-1.009.137-2.159.236-3.45.098-1.291.196-2.654.295-4.091.098-1.437.196-2.79.294-4.06.098-1.269.177-2.383.236-3.342.059-.957.088-1.613.088-1.967 0-.313.157-.468.471-.468h1.619c1.197 0 2.002.271 2.414.812.412.541.618 1.342.618 2.404 0 .105-.015.437-.044.999-.03.562-.074 1.27-.133 2.123-.059.854-.123 1.806-.191 2.857-.069 1.051-.138 2.129-.206 3.232-.069 1.104-.138 2.182-.206 3.233-.069 1.051-.132 2.004-.191 2.857l-.147 2.139c-.039.573-.069.921-.088 1.046-.019.167-.059.286-.118.359-.059.073-.177.109-.353.109h-1.619l-.002.002zM16.312 20.765c.618 0 1.156-.083 1.615-.252.458-.168.858-.357 1.199-.567.341-.21.629-.399.863-.567.234-.168.448-.252.64-.252.49 0 .735.315.735.945 0 .147-.032.352-.096.614-.064.263-.149.535-.256.819-.107.283-.219.551-.336.803-.117.252-.229.441-.335.567-.107.105-.294.273-.56.504-.267.231-.623.462-1.071.693-.448.231-.97.436-1.567.614s-1.258.268-1.982.268c-.81 0-1.647-.121-2.51-.362-.864-.241-1.647-.661-2.35-1.26-.703-.598-1.285-1.406-1.743-2.424-.459-1.018-.688-2.293-.688-3.826 0-.546.037-1.17.112-1.874.074-.704.229-1.427.463-2.173.234-.745.549-1.48.943-2.204.394-.724.921-1.37 1.583-1.937.661-.567 1.455-1.024 2.382-1.37.928-.346 2.031-.519 3.31-.519 1.044 0 1.945.121 2.702.362.757.241 1.38.567 1.871.976.49.41.858.887 1.103 1.433s.368 1.133.368 1.763c0 1.134-.363 1.968-1.087 2.503-.725.535-1.748.803-3.07.803-.32 0-.539-.026-.655-.079-.117-.052-.176-.173-.176-.362 0-.504-.011-.955-.032-1.354-.022-.399-.08-.735-.176-1.008-.096-.272-.24-.482-.432-.629-.192-.147-.469-.22-.831-.22-.661 0-1.189.21-1.583.629-.395.42-.693.929-.895 1.528-.203.598-.331 1.212-.384 1.842-.053.63-.08 1.155-.08 1.574 0 1.491.24 2.53.719 3.117.48.588 1.242.882 2.287.882M30.617 11.193c-.803 0-1.442.204-1.917.614-.475.409-.835.903-1.078 1.48-.243.578-.402 1.186-.475 1.826-.074.64-.111 1.181-.111 1.622 0 1.385.222 2.404.666 3.054.443.651 1.077.976 1.901.976.739 0 1.347-.23 1.822-.693.476-.462.845-1.018 1.109-1.669.264-.65.444-1.332.539-2.047.095-.713.143-1.312.143-1.795 0-1.049-.195-1.873-.586-2.472-.391-.598-1.062-.897-2.012-.897m-1.49 13.761c-1.458 0-2.667-.205-3.629-.614-.962-.409-1.728-.971-2.298-1.685-.571-.713-.972-1.548-1.205-2.503-.233-.955-.348-1.978-.348-3.07 0-1.26.153-2.493.459-3.7.306-1.207.829-2.283 1.569-3.227.74-.945 1.717-1.705 2.932-2.283 1.215-.577 2.731-.866 4.548-.866 2.662 0 4.569.645 5.721 1.936 1.152 1.291 1.728 3.102 1.728 5.432 0 .651-.048 1.37-.143 2.157-.095.787-.275 1.57-.539 2.346-.264.777-.624 1.532-1.078 2.267-.454.735-1.03 1.386-1.727 1.953-.697.567-1.538 1.018-2.52 1.354-.983.335-2.14.504-3.471.504" id="Shape"/><path d="M46.794 13.75c-.043.648-.096 1.35-.16 2.105l-.193 2.282c-.064.767-.123 1.517-.176 2.251l-.145 1.943-.112 1.392-.048.583c-.022.259-.075.432-.16.518-.086.087-.268.13-.546.13h-1.156c-1.156 0-1.964-.275-2.424-.826-.461-.55-.691-1.376-.691-2.477 0-.129.017-.453.048-.971.032-.518.075-1.138.129-1.862l.176-2.412.193-2.655h-1.509c-.236 0-.353-.118-.353-.356 0-.172.011-.426.032-.761l.064-.988c.021-.259.059-.523.113-.793.054-.27.15-.507.289-.713.139-.205.348-.378.626-.518s.642-.221 1.092-.243l.129-1.295c.128-1.403.39-2.579.787-3.529.396-.949.915-1.71 1.557-2.283.642-.571 1.408-.982 2.296-1.23.888-.248 1.879-.373 2.97-.373 1.07 0 1.986.097 2.746.291.76.194 1.376.464 1.847.81.47.345.813.756 1.028 1.23.214.475.321.983.321 1.522 0 1.123-.348 1.921-1.044 2.396-.696.475-1.633.713-2.81.713-.321 0-.541-.027-.659-.081-.118-.054-.176-.178-.176-.373 0-.712-.064-1.273-.193-1.683-.129-.41-.482-.615-1.06-.615-.428 0-.792.129-1.092.388-.3.259-.546.599-.739 1.02-.192.421-.337.902-.433 1.441-.096.54-.177 1.091-.241 1.651h3.693c.342 0 .514.151.514.453l-.129 1.748c-.043.648-.22 1.171-.53 1.571-.311.399-.948.599-1.911.599h-1.96zM59.232 11.193c-.803 0-1.442.204-1.917.614-.475.409-.835.903-1.078 1.48-.243.578-.402 1.186-.475 1.826-.074.64-.111 1.181-.111 1.622 0 1.385.222 2.404.666 3.054.443.651 1.077.976 1.901.976.739 0 1.347-.23 1.822-.693.475-.462.845-1.018 1.109-1.669.264-.65.444-1.332.539-2.047.095-.713.143-1.312.143-1.795 0-1.049-.196-1.873-.586-2.472-.391-.598-1.062-.897-2.013-.897m-1.49 13.761c-1.458 0-2.668-.205-3.629-.614-.962-.409-1.728-.971-2.298-1.685-.57-.713-.972-1.548-1.204-2.503-.233-.955-.348-1.978-.348-3.07 0-1.26.153-2.493.459-3.7.306-1.207.829-2.283 1.569-3.227.74-.945 1.717-1.705 2.932-2.283 1.215-.577 2.731-.866 4.548-.866 2.662 0 4.569.645 5.721 1.936 1.152 1.291 1.727 3.102 1.727 5.432 0 .651-.048 1.37-.143 2.157-.095.787-.275 1.57-.539 2.346-.264.777-.623 1.532-1.078 2.267-.454.735-1.03 1.386-1.727 1.953-.697.567-1.537 1.018-2.52 1.354-.982.335-2.139.504-3.471.504M77.447 22.133c0-.47.035-1.085.105-1.843.07-.758.14-1.559.21-2.404.07-.844.14-1.661.21-2.452.07-.79.105-1.453.105-1.987 0-.556-.125-1.053-.375-1.491-.25-.438-.735-.657-1.455-.657-.7 0-1.28.182-1.74.545-.46.363-.845 1.025-1.155 1.987-.31.962-.565 2.287-.765 3.975-.2 1.688-.39 3.857-.57 6.507-.02.257-.07.428-.15.513-.08.085-.25.128-.51.128h-1.08c-.62 0-1.125-.069-1.515-.208-.39-.138-.7-.336-.93-.593-.23-.257-.39-.571-.48-.946-.09-.373-.135-.806-.135-1.298 0-.32.015-.774.045-1.362.03-.587.085-1.399.165-2.436.079-1.036.174-2.351.285-3.942l.405-5.914c.019-.469.07-.747.15-.833.06-.064.22-.096.48-.096h1.17c.6 0 1.095.075 1.485.224.39.15.705.348.945.593.24.246.41.534.51.865.1.332.16.668.18 1.01.62-1.133 1.33-1.917 2.13-2.356.799-.438 1.799-.657 2.999-.657.84 0 1.57.096 2.189.288.62.193 1.135.518 1.545.978.41.46.715 1.058.915 1.795.2.737.3 1.651.3 2.74 0 .342-.02.833-.06 1.474-.04.641-.09 1.341-.15 2.099-.06.759-.125 1.55-.195 2.372l-.195 2.292c-.06.705-.11 1.325-.15 1.859-.041.534-.06.887-.06 1.058 0 .47-.05.753-.15.85-.1.096-.32.144-.66.144h-.96c-.64 0-1.16-.064-1.559-.192-.4-.128-.71-.31-.93-.545-.22-.235-.375-.529-.465-.881-.09-.353-.135-.753-.135-1.202" id="Shape"/><path d="M91.562 11.625c-.064.795-.134 1.579-.209 2.352-.075.774-.145 1.505-.208 2.195-.065.69-.113 1.307-.145 1.85-.032.544-.048.962-.048 1.255 0 .544.064.905.193 1.082.128.178.342.267.642.267.235 0 .438-.042.61-.126.171-.083.332-.177.482-.282l.401-.282c.118-.083.252-.125.402-.125.15 0 .289.084.418.251.128.168.193.554.193 1.16 0 1.15-.321 2.06-.963 2.728-.642.669-1.745 1.004-3.308 1.004-1.542 0-2.682-.35-3.421-1.051-.739-.7-1.108-1.772-1.108-3.214 0-.314.016-.685.048-1.113.032-.429.08-.988.145-1.678l.241-2.54c.096-1.004.198-2.248.305-3.732h-1.703c-.172 0-.273-.036-.305-.11-.032-.073-.048-.183-.048-.329l.096-1.6c.021-.271.059-.538.112-.8.053-.261.161-.496.321-.706.161-.209.39-.376.691-.502.299-.125.695-.188 1.188-.188.149-.377.321-.826.514-1.349.193-.522.385-1.029.578-1.521.193-.491.38-.904.562-1.239.182-.334.348-.502.498-.502h.931c.899 0 1.52.272 1.863.815.342.544.514 1.192.514 1.944 0 .418-.032 1.035-.096 1.851h3.372c.343 0 .514.146.514.439l-.128 1.693c-.043.627-.22 1.135-.53 1.521-.311.387-.948.58-1.911.58h-1.702l-.001.002z"/></g></svg>